<svg xmlns="http://www.w3.org/2000/svg" xmlns:xlink="http://www.w3.org/1999/xlink" width="251" height="221" viewBox="0 0 251 221">
    <defs>
        <path id="a" d="M6.141.269h16.201c6.446 0 8.171 8.941 18.594 8.941H62.71c5.262 0 7.157 2.748 5.683 8.242L61.853 49 .008 44.954 6.14.27z"/>
        <path id="c" d="M59.172.06v53.048l.445-.596c-12.822 3.831-23.351 5.744-31.58 5.744-8.216 0-17.442-1.908-27.676-5.73l.405.582v-53L.558.036.141.33v.22c8.875 3.11 18.175 4.665 27.897 4.665 9.74 0 20.326-1.56 31.759-4.679v-.17l-.46-.35-.165.045z"/>
        <path id="e" d="M.133.222l28.83 16.684L1.354 35.059z"/>
        <path id="g" d="M0 0h520v500H0z"/>
    </defs>
    <g fill="none" fill-rule="evenodd">
        <path fill="#000" fill-rule="nonzero" d="M83.815 67.511c-8.967 0-13.964-5.321-13.964-13.31 0-10.024 5.728-15.126 13.685-15.126 9.223 0 12.94 6.115 12.94 12.292 0 2.015-.15 2.945-.302 4.445H76.578c1.029 5.274 4.658 6.065 9.244 6.065 3.73 0 7.851-2.507 7.851-2.507l.955 4.393s-4.553 3.748-10.813 3.748zm-.956-22.92c-3.428 0-5.506 1.7-5.506 1.7s-.818 1.774-1.022 4.736h13.515v-1.154c0-3.164-2.781-5.283-6.987-5.283zM83.787 84.338c8.014 0 13.656 4.877 13.656 13.343 0 9.61-5.08 15.091-13.656 15.091-7.989 0-13.6-4.877-13.6-13.343 0-9.61 5.135-15.091 13.6-15.091zm6.183 21.263s1.053-1.92 1.053-6.63c0-4.223-1.33-8.84-7.808-8.84-3.537 0-5.555 1.378-5.555 1.378s-1.054 1.88-1.054 6.59c0 4.223 1.399 8.88 7.808 8.88 3.554 0 5.556-1.378 5.556-1.378zM240.744 51.367c0 2.015-.15 2.945-.302 4.445h-19.596c1.028 5.274 4.658 6.065 9.243 6.065 3.73 0 7.851-2.507 7.851-2.507l.956 4.393s-4.553 3.748-10.813 3.748c-8.968 0-13.965-5.321-13.965-13.31 0-10.024 5.729-15.126 13.685-15.126 9.223 0 12.94 6.115 12.94 12.292zm-6.63-.34v-1.154c0-3.164-2.782-5.283-6.987-5.283-3.428 0-5.507 1.701-5.507 1.7 0 0-.817 1.775-1.022 4.737h13.516z"/>
        <g transform="translate(22.414 .426)">
            <mask id="b" fill="#fff">
                <use xlink:href="#a"/>
            </mask>
            <path fill="#000" d="M-5.9 54.885h80.685v-60.5H-5.9z" mask="url(#b)"/>
        </g>
        <path fill="#38EACB" stroke="#000" stroke-linecap="round" stroke-linejoin="round" d="M19.908 5.007H36.11c6.446 0 8.171 8.941 18.594 8.941h29.034V49.59H20.026l-.118-44.582z"/>
        <g transform="translate(94.452 24.202)">
            <mask id="d" fill="#fff">
                <use xlink:href="#c"/>
            </mask>
            <path fill="#FFF" d="M.141 53.108c10.3 3.847 19.6 5.77 27.897 5.77 8.297 0 18.884-1.923 31.759-5.77V-.11c-11.445 3.135-22.031 4.702-31.76 4.702C18.31 4.592 9.012 3.025.142-.11v53.218z" mask="url(#d)"/>
        </g>
        <path fill="#F8B1C0" stroke="#000" stroke-linecap="round" stroke-linejoin="round" d="M94.593 77.31c10.3 3.847 19.6 5.771 27.897 5.771 8.297 0 18.884-1.924 31.759-5.77V24.092c-11.445 3.134-22.031 4.701-31.76 4.701-8.053 0-15.812-1.074-23.277-3.222a81.5 81.5 0 0 1-4.619-1.48V77.31z"/>
        <g stroke="#000" stroke-linecap="round" stroke-linejoin="round">
            <path d="M95.666 59.785c9.013 4.132 18.097 6.198 27.253 6.198 9.156 0 19.313-2.066 30.472-6.198M95.666 41.222c9.013 4.133 18.097 6.199 27.253 6.199 9.156 0 19.313-2.066 30.472-6.199M113.048 82.073V28.14M133.195 82.073v-53.25"/>
        </g>
        <g transform="translate(141.925 16.162)">
            <mask id="f" fill="#fff">
                <use xlink:href="#e"/>
            </mask>
            <path fill="#000" d="M-22.63 6.128L16.788-16.54l21.698 37.43L-.932 43.558z" mask="url(#f)"/>
        </g>
        <g>
            <g transform="translate(94.484 70.699)">
                <path fill="#FEED52" stroke="#000" stroke-linecap="round" stroke-linejoin="round" stroke-width=".96" d="M114.433 1.735L4.97 30.702v8.606l103.64 26.467"/>
                <ellipse cx="123.458" cy="35.037" fill="#000" stroke="#000" stroke-linecap="round" stroke-linejoin="round" stroke-width=".96" rx="31.753" ry="34.578"/>
                <ellipse cx="4.97" cy="35.037" fill="#000" rx="4.668" ry="5.083"/>
            </g>
        </g>
        <g stroke="#000" stroke-linecap="round" stroke-linejoin="round">
            <g transform="translate(89.874 122.434)">
                <g transform="translate(.06 .207)">
                    <path fill="#FFF" d="M61.54 24.858L31.037 98.12 3.121 20.819l.104.002c-.2-.875-.297-1.768-.28-2.674C3.117 8.187 16.74.349 33.37.639 50 .93 63.34 9.24 63.166 19.198c-.034 1.987-.604 3.89-1.626 5.66z"/>
                    <path d="M11.309 42.972c3.538 6.621 10.172 10.35 19.901 11.187 9.73.837 17.209-2.645 22.439-10.447M47.211 58.917c-2.713 4.677-7.582 7.195-14.607 7.552-7.024.358-12.32-2.337-15.889-8.084M21.93 73.147c1.604 3 4.61 4.69 9.02 5.07 4.41.38 7.8-1.2 10.17-4.735"/>
                    <ellipse cx="32.729" cy="18.618" fill="#000" stroke-width=".5" rx="18.036" ry="30.116" transform="rotate(90 32.729 18.618)"/>
                </g>
                <path fill="#FFF" d="M61.6 25.065L31.098 98.327 3.182 21.026l.104.002c-.2-.875-.297-1.768-.28-2.674C3.178 8.394 16.8.556 33.43.846c16.63.29 29.97 8.6 29.796 18.559-.034 1.987-.604 3.89-1.627 5.66z"/>
                <path d="M11.37 43.18c3.538 6.62 10.172 10.35 19.901 11.186 9.73.837 17.209-2.646 22.438-10.448M47.272 59.124c-2.713 4.677-7.582 7.195-14.607 7.552-7.024.358-12.32-2.337-15.889-8.084M21.992 73.354c1.603 3 4.61 4.69 9.02 5.07 4.409.38 7.799-1.2 10.169-4.735"/>
                <ellipse cx="32.79" cy="18.825" fill="#000" stroke-width=".5" rx="18.036" ry="30.116" transform="rotate(90 32.79 18.825)"/>
            </g>
        </g>
        <g stroke="#000" stroke-linecap="round" stroke-linejoin="round">
            <g transform="translate(168.826 2.501)">
                <path fill="#38EACB" d="M51.519 55.964V22.696h-18.08v11.056H17.424v10.403H.315v11.809z"/>
                <path d="M4.084 43.389c.794-11.243 3.857-17.599 9.19-19.068 5.331-1.469 9.699 1.667 13.102 9.407 1.195-16.61 9.42-26.101 24.675-28.474"/>
                <ellipse cx="55.536" cy="5.254" fill="#000" rx="5.275" ry="5.254"/>
                <ellipse cx="25.917" cy="30.878" fill="#000" rx="1.917" ry="1.909"/>
            </g>
        </g>
        <g transform="translate(1 66.188)">
            <path fill="#F8B1C0" stroke="#000" stroke-linecap="round" stroke-linejoin="round" d="M69.912 14.663c-5.535-1.373-8.848.246-11.036 1.723-3.902 2.635-3.272 6.968-4.078 11.013-.604 3.037-3.387 6.812-5.831 8.542-2.151 1.521-7.275 3.857-11.674 4.862-6.578 1.502-9.996 6.392-10.124 13.312-.102 5.558 2.722 7.497 2.054 13.968-.101.98-.642 1.866-.872 2.823-.85 3.536-1.118 6.76.642 10.05 3.045 5.688 12.75 4.578 17.144 5.142 2.274.292 5.657 1.685 7.718 3.039 3.807 2.502 4.422 5.413 8.192 8.013 1.897 1.308 6.115 4.753 10.31 5.643 2.044.434 8.482 1.002 12.573-3.36 2.776-2.96 4.472-7.014 2.982-16.097-1.49-9.082-5.765-13.922-5.943-18.07-.234-5.46 1.718-8.961 3.663-13.968 1.479-3.808 3.68-5.633 3.68-10.495 0-4.862-4.382-7.613-8.791-13.654-4.41-6.041-3.666-10.763-10.609-12.486z"/>
            <path stroke="#000" stroke-linecap="round" stroke-linejoin="round" d="M.464 80.754h41.561l11.844-16.53H15.43z"/>
            <ellipse cx="27.663" cy="63.064" fill="#000" rx="9.464" ry="9.425"/>
            <path stroke="#000" stroke-linecap="round" stroke-linejoin="round" d="M.393 80.4L27.557.369 42.096 80.4z"/>
            <path stroke="#000" stroke-linecap="round" stroke-linejoin="round" d="M53.87 64.225L27.627.509 15.429 64.225z"/>
        </g>
        <path fill="#000" fill-rule="nonzero" d="M112.038 84.67c-5.24 0-10.26 2.644-10.26 2.644l.917 4.32s3.28-1.343 7.47-1.343c3.262 0 6.382.675 6.832 4.726-7.69-.017-17.045-.308-17.045 9.248 0 5.093 3.557 8.523 8.137 8.523 3.167 0 6.951-2.284 9.21-3.88l.224 3.438h6.02V95.912c0-6.862-3.369-11.242-11.505-11.242zm-6.098 18.335c0-1.164.25-2.257.25-2.257l10.875-.853.023 4.853c-1.346.987-3.86 2.484-6.738 2.484-2.913 0-4.41-2.102-4.41-4.227zm-6.294-44.177c0 5.095 3.556 8.524 8.136 8.524 3.167 0 6.952-2.284 9.21-3.88l.225 3.438h6.02V50.476c0-6.862-3.37-11.242-11.506-11.242-5.239 0-10.26 2.644-10.26 2.644l.918 4.32s3.28-1.343 7.47-1.343c3.262 0 6.382.675 6.832 4.727-7.69-.018-17.045-.309-17.045 9.246zm5.988-1.26c0-1.163.249-2.256.249-2.256l10.876-.853c.007 1.797.017 3.716.022 4.853-1.346.987-3.86 2.484-6.738 2.484-2.913 0-4.41-2.102-4.41-4.227zm23.423 9.36h6.298v-39.45h-6.298v39.45zm38.487 18.74c-1.363-.732-3.192-1.331-5.541-1.331-7.466 0-13.597 5.064-13.597 14.75 0 7.99 4.367 13.68 10.242 13.68 3.38 0 6.938-2.302 8.896-3.8v3.183h6.298V72.698h-6.298v12.97zm-6.326 21.584c-2.832 0-6.395-2.091-6.395-9.38 0-3.99 1.053-6.363 1.053-6.363s1.375-1.456 6.547-1.456c1.919 0 3.722.257 5.121.538v14.114c-.743.534-3.718 2.547-6.326 2.547zm-.238-40.323h6.298V39.936h-6.298v26.993zm-.114-31.969h6.528v-6.47h-6.528v6.47zm48.582 10.683V66.93h-6.298V47.85c0-2.469-.452-3.61-2.905-3.61-1.916 0-5.616 2.077-5.616 2.077V66.93h-6.298V47.85c0-2.469-.452-3.61-2.905-3.61-1.916 0-5.615 2.077-5.615 2.077V66.93h-6.298V39.936h6.298v2.647c1.815-1.214 5.629-3.508 8.533-3.508 2.278 0 4.766 1.236 5.796 3.841 1.518-1.056 5.824-3.841 9.023-3.841 2.963 0 6.285 2.089 6.285 6.568zm-66.25-.77h-3.666v-4.937h3.666l.639-6.432h5.66v6.432h7.779l-1.392 4.938h-6.387v13.23c0 3.342 1.578 4.137 4.414 4.137 1.584 0 2.713-.405 2.713-.405v4.522s-2.427 1.128-5.974 1.128c-4.468 0-7.452-2.229-7.452-8.002v-14.61zm-76.515-3.995c0-7.566-7.205-9.153-10.618-9.153H40.829v35.204h6.733V53.066h5.256l7.46 13.863h7.806l-8.201-15.242c3.8-1.78 6.8-5.317 6.8-10.81zm-19.121-3.756h7.677c2.695 0 4.801 1.75 4.801 4.806 0 4.26-2.79 6.094-2.79 6.094h-9.688v-10.9zm14.33 55.88c2.315-1.814 3.892-4.395 3.892-7.79 0-6.8-7.198-8.137-11.282-8.137H40.83v35.172H55.96c6.407 0 11.434-4.673 11.434-11.438 0-4.413-2.623-6.685-5.502-7.806zM53.715 82.51c2.81 0 5.233 1.146 5.233 4.236 0 4.252-2.448 5.013-2.448 5.013h-8.916v-9.249h6.131zm4.884 24.26H47.584v-9.613h7.98c2.81 0 4.933 1.593 4.933 4.683 0 3.275-1.898 4.93-1.898 4.93zm89.198-21.684v6.558h-3.372c-4.25 0-7.511 2.873-8.878 4.312v16.271h-6.299V85.232h6.299v5.352c1.985-2.523 5.229-5.5 9.491-5.5h2.759z"/>
        <g>
            <path fill="#000" d="M163.12 147.437h19.571v19.493H163.12z" opacity=".9" style="mix-blend-mode:multiply"/>
            <path fill="#FFF" d="M175.173 163.5h2.274l-2.639-5.297c1.273-.56 2.27-1.78 2.27-3.8 0-2.642-2.163-3.196-3.266-3.196h-4.758V163.5h2.01v-4.93h1.654l2.455 4.93zm-4.212-10.654h2.582c.906 0 1.615.811 1.615 1.909 0 1.53-.939 2.188-.939 2.188h-3.258v-4.097z"/>
        </g>
        <g fill="#FFF">
            <path d="M207.978 102.028l.661.212.127-.392c.064-.196-.022-.38-.23-.446-.185-.06-.364.027-.431.234l-.127.392zm-1.137.548l.391-1.208c.187-.577.75-1.051 1.548-.795.476.153.82.527.851 1.006l1.97-.33-.293.91-1.86.304-.01.033 1.595.512-.267.827-3.925-1.259zM213.187 94.414l.806-.334 1.222 2.925 1.246-.516.362.866-2.052.85zM221.917 93.478l2.943 1.246-.364.853-1.072-.455-1.25 2.926-.797-.338 1.249-2.926-1.073-.454zM230.685 103.824l.174.887-3.94 1.33-.17-.865 2.278-.768-2.5-.372-.152-.774 2.178-1.28-2.4.14-.178-.91 4.153-.24.173.887-2.487 1.52zM226.58 113.022l-.543-.575-.226.212c-.155.145-.166.375-.005.546.153.162.38.185.556.02l.218-.203zm-1.094-1.158l-.55-.584-.372.349a.388.388 0 0 0-.014.562c.15.158.392.182.568.017l.368-.344zm1.533 1.924c-.56.525-1.247.65-1.762.104-.244-.259-.325-.528-.284-.802-.36.102-.756.009-1.094-.35-.527-.558-.37-1.301.195-1.83l.908-.85 2.823 2.992-.786.736zM217.41 116.16l.098-.685-.409-.058c-.205-.029-.372.086-.402.301-.028.193.088.353.304.384l.41.058zm.736 1.023l-1.262-.18c-.602-.084-1.167-.557-1.049-1.384.07-.492.383-.893.851-1.006l-.66-1.878.95.135.616 1.774.034.004.236-1.653.865.123-.58 4.065zM208.897 110.394l.308.581 1.98-1.042-.309-.582c-.298-.56-.92-.79-1.518-.474-.559.294-.77.936-.461 1.517zm-.725.64c-.612-1.152-.395-2.334.767-2.946 1.147-.604 2.273-.11 2.877 1.027l.61 1.148-3.645 1.919-.61-1.148zM216.158 104.864c-.239-.12-.356-.264-.356-.45 0-.231.195-.426.482-.426.216 0 .383.097.452.203l-.07.324a.556.556 0 0 0-.373-.155c-.08 0-.124.029-.124.071 0 .046.038.07.118.11l.138.07c.242.124.37.25.37.47 0 .264-.209.461-.53.461-.25 0-.432-.123-.504-.252l.104-.32a.506.506 0 0 0 .41.206c.09 0 .159-.029.159-.1 0-.063-.049-.095-.153-.15l-.123-.062zM217.503 105.502h-.365v-2.084h.365v.759c.04-.109.173-.19.385-.19.305 0 .63.201.63.66v.855h-.365v-.796c0-.211-.141-.332-.32-.332-.155 0-.304.095-.33.224v.904zM219.613 105.156c.23 0 .414-.158.414-.39 0-.231-.184-.392-.414-.392-.23 0-.414.16-.414.392s.184.39.414.39m0 .386a.777.777 0 0 1 0-1.554.777.777 0 1 1 0 1.554M221.484 104.374c-.181 0-.34.086-.385.195v.392c.046.112.204.195.385.195.253 0 .428-.16.428-.392s-.175-.39-.428-.39m.049 1.168c-.219 0-.385-.083-.434-.195v.765h-.365v-2.084h.353v.155c.05-.11.222-.195.44-.195.397 0 .753.315.753.776 0 .46-.354.778-.747.778"/>
        </g>
    </g>
</svg>
