<svg xmlns="http://www.w3.org/2000/svg" width="144" height="144" viewBox="0 0 144 144">
    <g fill="none" fill-rule="evenodd">
        <path fill="#5B00FF" d="M7.273 52.11l3.945 1.282.756-2.37c.378-1.184-.131-2.295-1.37-2.698-1.109-.36-2.175.164-2.574 1.416l-.757 2.37zm-6.78 3.317l2.332-7.308c1.113-3.49 4.475-6.357 9.235-4.808 2.835.923 4.884 3.188 5.075 6.083l11.754-1.99-1.754 5.499-11.095 1.84-.062.197 9.519 3.098-1.597 5.004L.493 55.427z"/>
        <path fill="#1A1919" d="M38.347 6.06l4.807-2.019 7.289 17.694 7.432-3.122 2.157 5.238-12.24 5.14z"/>
        <path fill="#5B00FF" d="M90.42.4l17.554 7.54-2.171 5.155-6.397-2.747-7.454 17.693-4.757-2.043 7.452-17.694-6.398-2.748z"/>
        <path fill="#1A1919" d="M142.722 62.972l1.034 5.364-23.503 8.039-1.008-5.228 13.584-4.644-14.913-2.247-.903-4.685 12.989-7.734-14.318.842-1.06-5.499 24.772-1.454 1.035 5.364-14.838 9.19z"/>
        <path fill="#5B00FF" d="M118.23 118.6l-3.237-3.478-1.348 1.28c-.922.877-.99 2.27-.028 3.302.915.983 2.268 1.123 3.316.128l1.297-1.231zm-6.52-7.006l-3.284-3.528-2.221 2.108c-.975.924-1.02 2.39-.08 3.399.89.958 2.34 1.102 3.388.106l2.197-2.085zm9.14 11.64c-3.343 3.174-7.438 3.927-10.51.625-1.455-1.562-1.939-3.192-1.693-4.849-2.151.618-4.51.055-6.527-2.112-3.143-3.378-2.205-7.875 1.164-11.073l5.416-5.14 16.843 18.096-4.693 4.453z"/>
        <path fill="#1A1919" d="M63.538 137.577l.583-4.142-2.441-.35c-1.22-.176-2.218.518-2.401 1.82-.165 1.164.53 2.137 1.818 2.322l2.44.35zm4.387 6.185l-7.527-1.082c-3.595-.515-6.962-3.375-6.259-8.374.42-2.978 2.283-5.4 5.078-6.082l-3.936-11.36 5.663.815 3.678 10.728.204.029 1.407-9.999 5.154.74-3.462 24.585zM12.753 102.706l1.841 3.515 11.808-6.305-1.84-3.516c-1.778-3.393-5.486-4.777-9.058-2.87-3.331 1.778-4.591 5.66-2.75 9.176zm-4.325 3.872c-3.65-6.97-2.355-14.116 4.578-17.818 6.842-3.653 13.559-.667 17.161 6.212l3.634 6.94-21.738 11.607-3.635-6.94zM56.066 69.26c-1.422-.727-2.126-1.592-2.126-2.717 0-1.402 1.166-2.579 2.88-2.579 1.286 0 2.28.589 2.692 1.229l-.412 1.956a3.294 3.294 0 0 0-2.229-.935c-.48 0-.736.173-.736.432 0 .278.223.416.703.658l.822.433c1.44.744 2.21 1.506 2.21 2.839 0 1.592-1.25 2.787-3.17 2.787-1.491 0-2.571-.745-3-1.524l.618-1.939c.428.572 1.217 1.247 2.45 1.247.532 0 .944-.173.944-.606 0-.38-.292-.571-.91-.9l-.736-.38zM64.09 73.12h-2.177v-12.6h2.177v4.586c.24-.658 1.028-1.143 2.297-1.143 1.816 0 3.753 1.212 3.753 3.982v5.175h-2.176v-4.812c0-1.28-.84-2.007-1.903-2.007-.926 0-1.817.57-1.971 1.35v5.47zM76.674 71.026c1.37 0 2.468-.952 2.468-2.354 0-1.402-1.097-2.371-2.468-2.371s-2.468.969-2.468 2.37c0 1.403 1.097 2.355 2.468 2.355m0 2.336a4.653 4.653 0 0 1-4.662-4.69c0-2.7 2.16-4.708 4.662-4.708a4.667 4.667 0 0 1 4.662 4.708c0 2.7-2.16 4.69-4.662 4.69M87.835 66.3c-1.08 0-2.023.52-2.297 1.177v2.372c.274.675 1.217 1.177 2.297 1.177 1.509 0 2.554-.97 2.554-2.371 0-1.402-1.045-2.354-2.554-2.354m.292 7.061c-1.302 0-2.297-.502-2.589-1.176v4.62h-2.176v-12.6h2.108v.935c.291-.658 1.32-1.178 2.623-1.178 2.365 0 4.49 1.905 4.49 4.692s-2.108 4.707-4.456 4.707"/>
    </g>
</svg>
