<svg xmlns="http://www.w3.org/2000/svg" width="327" height="234" viewBox="0 0 327 234">
    <defs>
        <path id="a" d="M0 0h520v500H0z"/>
    </defs>
    <g fill="none" fill-rule="evenodd">
        <g transform="translate(-1)">
            <ellipse cx="232.24" cy="62.516" fill="#FF0" rx="28.385" ry="28.29" style="mix-blend-mode:multiply"/>
            <ellipse cx="218.949" cy="148.583" fill="#FF0" rx="28.385" ry="28.29" style="mix-blend-mode:multiply"/>
            <ellipse cx="135.369" cy="99.543" fill="#FF0" rx="28.385" ry="28.29" style="mix-blend-mode:multiply"/>
            <ellipse cx="95.925" cy="192.048" fill="#FF0" rx="28.385" ry="28.29" style="mix-blend-mode:multiply"/>
            <ellipse cx="278.497" cy="205.162" fill="#FF0" rx="28.385" ry="28.29" style="mix-blend-mode:multiply"/>
            <ellipse cx="78.6" cy="28.29" fill="#FF0" rx="28.385" ry="28.29" style="mix-blend-mode:multiply"/>
            <path stroke="#000" stroke-linecap="round" stroke-linejoin="round" stroke-width="1.764" d="M166.032 122.298c3.605-6.783 2.16-7.639 8.41-11.534 3.862-2.409 5.648 3.781 5.424 5.066-1.302 7.453-4.871 12.878-7.402 18.356-1.072 2.319-3.036 4.893-5.56 6.586-1.973 1.324-6.588-.093-5.885-2.7"/>
            <path stroke="#000" stroke-linecap="round" stroke-linejoin="round" stroke-width="1.764" d="M177.526 123.463c1.93-1.747 4.1-6.369 6.151-8.01 7.034-5.63 8.583 4.128 7.034 6.989-2.108 4.692-9.234 19.542-15.323 26.19-3.989 4.355-9.982-5.545-5.51-10.009M186.92 131.53c1.958-1.99 4.41-4.5 7.338-4.881 6.175-.803 6.097 8.465 3.12 11.53-4.007 4.123-8.433 7.825-12.794 11.574-.406.35-.924.635-1.46.681-6.391.558-3.575-6.612-1.951-9.137"/>
            <path stroke="#000" stroke-linecap="round" stroke-linejoin="round" stroke-width="1.764" d="M195.63 140.6c-4.865 14.958-7.052 38.289-24.645 36.02-7.766-1-21.405-4.326-28.312-4.537"/>
            <path stroke="#000" stroke-linecap="round" stroke-linejoin="round" stroke-width="1.764" d="M144.535 172.44c-13.63-2.68-18.205-11.28-9.92-25.33 1.992-3.377 8.933-6.19 12.177-10.189 3.676-4.533 7.197-9.19 10.656-13.891 1.904-2.588 2.29-7.236 5.425-7.966 2.155-.502 1.998 3.973 2.559 6.107.717 2.726 1.647 6.926-.083 9.758-1.212 1.984-3.735 3.27-4.245 5.537-2.869 12.738 3.547 11.822-4.641 23.424"/>
            <path stroke="#000" stroke-linecap="round" stroke-linejoin="round" stroke-width="1.764" d="M141.306 140.929c2.256-14.959 10.124-27.61 12.906-42.555 1.109-5.959.174-16.042 6.185-20.63 3.762-2.873 5.732 3.501 4.582 8.92-.448 2.114-1.181 7.381-1.32 9.68-.304 4.999.085 7.076 0 12.084-.009.466-.039 5.878-.198 6.317"/>
            <path fill="#000" d="M55.845 63.952c3.622.94 13.241 1.948 28.859 3.022-5.897-13.416-9.435-21.67-10.614-24.76C61.273 56.537 55.19 63.783 55.845 63.952zM12.868 113.582c-3.21 4.93-6.47 11.454-10.107 6.809-3.136-4.007.232-6.276 10.107-6.809z"/>
            <path stroke="#000" stroke-linecap="round" stroke-linejoin="round" stroke-width="1.764" d="M326.31 108.632l-10.374 1.681 7.316 7.072zM165.613 43.534c-12.035 2.035-13.837 2.109-28.31 6.247a265.815 265.815 0 0 0-19.045 6.22c-10.99 4.06-24.97 9.433-30.132 20.916-6.631 14.752 19.248 27.385 30.529 29.25 30.387 5.025 63.416 2.16 93.154-5.016 16.5-3.981 36.243-10.013 41.905-27.988 4.253-13.505-12.13-20.093-22.35-22.03-25.95-4.92-64.208 1.684-89.629 10.62-7.799 2.74-32.166 12.43-24.922 22.434 2.943 4.064 9.825 5.64 15.909 5.994"/>
            <path stroke="#000" stroke-linecap="round" stroke-linejoin="round" stroke-width="1.764" d="M123.983 83.356c3.079 2.085 10.033 7.192 10.033 7.192-1.863 1.168-9.3 1.886-13.906 2.651"/>
            <path fill="#000" d="M234.864 108.638c10.432-1.232 17.99-10.611 16.472-22.45-1.88-14.673-15.79-16.423-23.305-14.845-5.901 1.239-15.387 3.632-15.387 19.92 0 16.289 18.16 17.854 22.22 17.375zM194.944 64.393c10.524 1.245 27.659-1.182 31.95-3.654 2.168-1.25-3.247-23.037-7.3-28.211-24.397 7.056-21.599 5.286-27.23 5.286 5.216 17.452 2.58 24.373 2.58 26.579zM121.987 40.05c-6.01 3.761-7.022 6.976-6.492 12.488.576 5.988 6.204 8.072 11.543 7.2 4.083-.666 7.997-3.06 9.354-6.76 4.355-11.87-8.395-16.69-14.405-12.928zM155.83 69.578c.477 3.66 2.99 6.034 5.81 6.168 1.815.086 6.833-1.46 6.833-7.026 0-3.457-2.545-6.727-5.822-6.727-6.821 0-6.996 6.245-6.821 7.585zM78.818 113.614c0-3.17 1.242-27.787 3.211-31.193 10.59 3.406 19.356 4.999 28.45 4.999 1.26 0 .933 32.77-.545 32.77-7.588 0-17.96-2.192-31.116-6.576zM240.505 63.012l14.943-16.397 5.179 20.31M219.243 125.661c6.6-8.593-13.782-10.495-16.775-11.219 7.286 12.554 12.877 16.294 16.775 11.22zM184.986 74.779c-5.216 0-5.83 8.203.06 8.203 5.888 0 5.032-8.203-.06-8.203zM270.544 83.49c1.632 2.818 9.42 1.201 7.668-3.462-1.752-4.662-10.928-2.164-7.668 3.462zM42.736 86.516c-3.864 1.494.016 8.258 2.647 5.277 2.792-3.163 1.216-6.771-2.647-5.277zM313.15 71.698c-5.003 1.162-6.978 4.059-8.152 9.241-1.01 4.452 4.135 12.51 13.156 10.607 9.021-1.903 11.36-12.853 6.182-16.767-3.881-2.934-6.182-4.243-11.185-3.08z"/>
            <path stroke="#000" stroke-linecap="round" stroke-linejoin="round" stroke-width="1.764" d="M18.332 67.835c1.913.766 4.517.193 5.153-1.041 1.214-2.354-.213-5.36-2.339-6.276-1.519-.653-3.672-.145-4.919 2.24-1.247 2.386.432 4.408 2.105 5.077z"/>
            <path fill="#000" d="M287.094 137.062c8.527 0 9.462-11.845.94-11.845s-8.43 11.845-.94 11.845z"/>
        </g>
    </g>
</svg>
