<svg xmlns="http://www.w3.org/2000/svg" xmlns:xlink="http://www.w3.org/1999/xlink" width="50" height="47" viewBox="0 0 50 47">
    <defs>
        <rect id="a" width="50" height="50" rx="25"/>
    </defs>
    <g fill="none" fill-rule="evenodd">
        <mask id="b" fill="#fff">
            <use xlink:href="#a"/>
        </mask>
        <g mask="url(#b)">
            <g transform="translate(-46 -30)">
                <ellipse cx="99.127" cy="26.984" fill="#FF0" rx="12.115" ry="12.21" style="mix-blend-mode:multiply"/>
                <ellipse cx="93.454" cy="64.132" fill="#FF0" rx="12.115" ry="12.21" style="mix-blend-mode:multiply"/>
                <ellipse cx="57.779" cy="42.965" fill="#FF0" rx="12.115" ry="12.21" style="mix-blend-mode:multiply"/>
                <ellipse cx="40.944" cy="82.892" fill="#FF0" rx="12.115" ry="12.21" style="mix-blend-mode:multiply"/>
                <path stroke="#000" stroke-linecap="round" stroke-linejoin="round" stroke-width=".756" d="M70.867 52.787c1.539-2.928.923-3.297 3.59-4.979 1.649-1.04 2.41 1.633 2.315 2.187-.556 3.217-2.08 5.558-3.16 7.923-.457 1-1.295 2.112-2.372 2.843-.843.571-2.813-.04-2.512-1.166"/>
                <path stroke="#000" stroke-linecap="round" stroke-linejoin="round" stroke-width=".756" d="M75.773 53.29c.824-.755 1.75-2.75 2.626-3.458 3.002-2.43 3.663 1.782 3.002 3.017-.9 2.025-3.941 8.435-6.54 11.304-1.703 1.88-4.26-2.393-2.352-4.32M79.783 56.771c.836-.858 1.882-1.942 3.132-2.106 2.635-.347 2.603 3.653 1.332 4.976-1.71 1.78-3.6 3.378-5.46 4.996-.175.151-.396.274-.624.294-2.728.24-1.526-2.854-.833-3.944"/>
                <path stroke="#000" stroke-linecap="round" stroke-linejoin="round" stroke-width=".756" d="M83.5 60.686c-2.076 6.457-3.01 16.527-10.519 15.548-3.315-.432-9.136-1.868-12.084-1.959"/>
                <path stroke="#000" stroke-linecap="round" stroke-linejoin="round" stroke-width=".756" d="M61.692 74.43c-5.818-1.158-7.77-4.87-4.234-10.934.85-1.457 3.813-2.672 5.197-4.398a160.135 160.135 0 0 0 4.548-5.995c.813-1.117.978-3.123 2.316-3.439.92-.216.853 1.715 1.092 2.636.306 1.177.703 2.99-.035 4.212-.517.856-1.594 1.412-1.812 2.39-1.225 5.498 1.514 5.102-1.981 10.11"/>
                <path stroke="#000" stroke-linecap="round" stroke-linejoin="round" stroke-width=".756" d="M60.314 60.828c.962-6.456 4.32-11.917 5.508-18.367.473-2.572.075-6.924 2.64-8.905 1.606-1.24 2.447 1.511 1.956 3.85-.191.913-.504 3.186-.564 4.178-.13 2.158.037 3.054 0 5.216-.003.201-.016 2.537-.084 2.727"/>
                <path stroke="#000" stroke-linecap="round" stroke-linejoin="round" stroke-width=".756" d="M70.688 18.79c-5.136.879-5.906.91-12.083 2.697-2.741.792-5.456 1.685-8.13 2.684-4.69 1.753-10.657 4.072-12.86 9.028-2.83 6.368 8.216 11.82 13.03 12.625 12.97 2.17 27.068.933 39.761-2.165 7.043-1.718 15.47-4.322 17.886-12.08 1.816-5.83-5.177-8.673-9.539-9.51-11.076-2.123-27.406.728-38.256 4.585-3.329 1.183-13.73 5.365-10.638 9.683 1.257 1.754 4.194 2.435 6.79 2.587"/>
                <path stroke="#000" stroke-linecap="round" stroke-linejoin="round" stroke-width=".756" d="M52.92 35.979c1.314.9 4.282 3.104 4.282 3.104-.795.504-3.97.814-5.935 1.144"/>
                <path fill="#000" d="M100.247 46.89c4.452-.531 7.678-4.58 7.03-9.69-.802-6.332-6.739-7.088-9.947-6.407-2.518.535-6.567 1.568-6.567 8.599 0 7.03 7.751 7.706 9.484 7.499zM66.513 30.032c.203 1.58 1.276 2.604 2.48 2.662.774.037 2.916-.63 2.916-3.033 0-1.492-1.086-2.903-2.485-2.903-2.911 0-2.986 2.695-2.911 3.274zM33.642 49.038c0-1.368.53-11.993 1.37-13.463 4.52 1.47 8.262 2.158 12.144 2.158.538 0 .398 14.144-.233 14.144-3.239 0-7.666-.946-13.281-2.839zM93.58 54.238c2.816-3.709-5.883-4.53-7.16-4.842 3.109 5.419 5.496 7.033 7.16 4.842zM78.958 32.276c-2.227 0-2.489 3.54.025 3.54 2.513 0 2.148-3.54-.025-3.54z"/>
            </g>
        </g>
    </g>
</svg>
