<svg xmlns="http://www.w3.org/2000/svg" xmlns:xlink="http://www.w3.org/1999/xlink" width="43" height="45" viewBox="0 0 43 45">
    <defs>
        <rect id="a" width="50" height="50" rx="25"/>
        <path id="c" d="M1.729.076h4.56c1.815 0 2.3 2.537 5.235 2.537h6.13c1.48 0 2.014.78 1.6 2.338l-1.842 8.951-17.41-1.148L1.73.076z"/>
        <path id="e" d="M16.657.18v15.05l.126-.168c-3.61 1.087-6.574 1.63-8.89 1.63-2.313 0-4.91-.542-7.791-1.627l.114.166V.194L.157.174.04.255V.32c2.498.882 5.116 1.323 7.853 1.323 2.742 0 5.722-.442 8.94-1.327V.266l-.13-.099-.046.013z"/>
        <path id="g" d="M.037.063l8.116 4.733L.381 9.947z"/>
    </defs>
    <g fill="none" fill-rule="evenodd" transform="translate(-7 -5)">
        <mask id="b" fill="#fff">
            <use xlink:href="#a"/>
        </mask>
        <g mask="url(#b)">
            <g transform="translate(8 5)">
                <path fill="#000" fill-rule="nonzero" d="M23.313 19.154c-2.524 0-3.931-1.51-3.931-3.776 0-2.844 1.612-4.292 3.852-4.292 2.597 0 3.643 1.735 3.643 3.488 0 .571-.042.835-.085 1.261h-5.516c.29 1.496 1.31 1.72 2.602 1.72 1.05 0 2.21-.71 2.21-.71l.269 1.246s-1.282 1.063-3.044 1.063zm-.27-6.503c-.964 0-1.55.483-1.55.483s-.23.503-.287 1.343h3.805v-.327c0-.898-.783-1.499-1.967-1.499zM23.305 23.928c2.256 0 3.844 1.384 3.844 3.786 0 2.727-1.43 4.282-3.844 4.282-2.249 0-3.828-1.384-3.828-3.786 0-2.727 1.445-4.282 3.828-4.282zm1.74 6.033s.297-.545.297-1.88c0-1.2-.374-2.509-2.198-2.509-.996 0-1.564.39-1.564.39s-.297.534-.297 1.87c0 1.199.394 2.52 2.198 2.52 1.001 0 1.565-.391 1.565-.391z"/>
                <g transform="translate(6.028 .121)">
                    <mask id="d" fill="#fff">
                        <use xlink:href="#c"/>
                    </mask>
                    <path fill="#000" d="M-1.661 15.572h22.713V-1.593H-1.66z" mask="url(#d)"/>
                </g>
                <path fill="#02EBCD" stroke="#000" stroke-linecap="round" stroke-linejoin="round" stroke-width=".5" d="M5.323 1.42h4.56c1.815 0 2.3 2.537 5.235 2.537h8.173V14.07H5.356L5.323 1.421z"/>
                <g transform="translate(26.307 6.704)">
                    <mask id="f" fill="#fff">
                        <use xlink:href="#e"/>
                    </mask>
                    <path fill="#FFF" d="M.04 15.23c2.9 1.092 5.517 1.638 7.853 1.638 2.336 0 5.316-.546 8.94-1.637V.13c-3.222.89-6.202 1.335-8.94 1.335C5.154 1.466 2.537 1.02.04.132V15.23z" mask="url(#f)"/>
                </g>
                <path fill="#FBB3C1" stroke="#000" stroke-linecap="round" stroke-linejoin="round" stroke-width=".5" d="M26.347 21.934c2.9 1.092 5.517 1.638 7.853 1.638 2.336 0 5.316-.546 8.94-1.638V6.836C39.92 7.725 36.94 8.17 34.2 8.17c-2.267 0-4.451-.305-6.553-.915-.437-.127-.87-.266-1.3-.42v15.1z"/>
                <g stroke="#000" stroke-linecap="round" stroke-linejoin="round" stroke-width=".5">
                    <path d="M26.65 16.962c2.536 1.172 5.093 1.759 7.67 1.759 2.578 0 5.438-.587 8.579-1.759M26.65 11.696c2.536 1.172 5.093 1.758 7.67 1.758 2.578 0 5.438-.586 8.579-1.758M31.247 23.286V7.984M37.07 23.286V8.178"/>
                </g>
                <g transform="translate(39.671 4.586)">
                    <mask id="h" fill="#fff">
                        <use xlink:href="#g"/>
                    </mask>
                    <path fill="#000" d="M-6.37 1.739L4.726-4.692l6.108 10.62-11.096 6.43z" mask="url(#h)"/>
                </g>
                <g>
                    <g transform="translate(26.316 20.059)">
                        <path fill="#FE5" stroke="#000" stroke-linecap="round" stroke-linejoin="round" stroke-width=".5" d="M32.213.492L1.4 8.711v2.441l29.175 7.51"/>
                        <ellipse cx="1.399" cy="9.941" fill="#000" rx="1.314" ry="1.442"/>
                    </g>
                </g>
                <g stroke="#000" stroke-linecap="round" stroke-linejoin="round" stroke-width=".5">
                    <g transform="translate(24.713 34.027)">
                        <g transform="translate(.017 .059)">
                            <path fill="#FFF" d="M17.693 7.818L9.042 28.44 1.118 6.68h.03a3.094 3.094 0 0 1-.08-.752C1.118 3.123 4.982.917 9.7.999c4.718.083 8.503 2.422 8.454 5.226a3.259 3.259 0 0 1-.46 1.593z"/>
                            <ellipse cx="9.519" cy="5.992" fill="#000" rx="5.077" ry="8.544" transform="rotate(90 9.519 5.992)"/>
                        </g>
                        <path fill="#02EBCD" d="M17.71 7.877L9.06 28.499 1.136 6.737l.03.001a3.094 3.094 0 0 1-.08-.753c.048-2.803 3.913-5.01 8.631-4.927 4.718.082 8.503 2.422 8.455 5.225a3.259 3.259 0 0 1-.462 1.594z"/>
                        <ellipse cx="9.536" cy="6.051" fill="#000" rx="5.077" ry="8.544" transform="rotate(90 9.536 6.05)"/>
                    </g>
                </g>
                <g transform="translate(0 18.779)">
                    <path fill="#FBB3C1" stroke="#000" stroke-linecap="round" stroke-linejoin="round" stroke-width=".5" d="M19.68 4.16c-1.557-.39-2.49.07-3.106.489-1.098.748-.921 1.977-1.148 3.125-.17.861-.953 1.932-1.642 2.423-.605.432-2.048 1.094-3.286 1.38-1.852.426-2.814 1.813-2.85 3.776-.028 1.577.767 2.127.578 3.964-.028.277-.18.529-.245.8-.24 1.004-.315 1.918.18 2.852.858 1.614 3.59 1.299 4.827 1.459.64.082 1.592.478 2.172.862 1.072.71 1.245 1.536 2.307 2.273.534.371 1.721 1.349 2.902 1.601.575.123 2.388.285 3.54-.953.78-.84 1.258-1.99.839-4.567-.42-2.577-1.623-3.95-1.673-5.127-.066-1.549.483-2.542 1.03-3.963.417-1.08 1.037-1.598 1.037-2.978 0-1.379-1.234-2.16-2.475-3.873-1.241-1.714-1.032-3.054-2.986-3.543z"/>
                    <path stroke="#000" stroke-linecap="round" stroke-linejoin="round" stroke-width=".5" d="M.13 22.911h11.7l3.334-4.69H4.344z"/>
                    <ellipse cx="7.787" cy="17.892" fill="#000" rx="2.664" ry="2.674"/>
                    <path stroke="#000" stroke-linecap="round" stroke-linejoin="round" stroke-width=".5" d="M.11 22.811L7.758.104l4.093 22.707z"/>
                    <path stroke="#000" stroke-linecap="round" stroke-linejoin="round" stroke-width=".5" d="M15.164 18.222L7.777.144 4.343 18.222z"/>
                </g>
                <path fill="#000" fill-rule="nonzero" d="M31.258 24.022c-1.475 0-2.889.75-2.889.75l.259 1.226s.923-.38 2.103-.38c.918 0 1.796.19 1.923 1.34-2.165-.005-4.798-.087-4.798 2.624 0 1.445 1 2.418 2.29 2.418.892 0 1.957-.648 2.593-1.1l.063.975h1.695v-4.663c0-1.947-.949-3.19-3.24-3.19zm-1.717 5.202c0-.33.07-.64.07-.64l3.062-.242.006 1.377c-.379.28-1.086.705-1.896.705-.82 0-1.242-.597-1.242-1.2zM27.77 16.691c0 1.445 1.002 2.418 2.29 2.418.892 0 1.958-.648 2.593-1.1l.064.975h1.694V14.32c0-1.947-.948-3.19-3.239-3.19-1.474 0-2.888.75-2.888.75l.259 1.226s.923-.38 2.102-.38c.919 0 1.797.19 1.924 1.34-2.165-.005-4.799-.087-4.799 2.624zm1.686-.358c0-.33.07-.64.07-.64l3.062-.242.006 1.377c-.379.28-1.087.705-1.897.705-.82 0-1.241-.597-1.241-1.2zm6.594 2.656h1.773V7.796h-1.773v11.193zm10.834 5.317a3.227 3.227 0 0 0-1.56-.378c-2.101 0-3.827 1.437-3.827 4.185 0 2.267 1.229 3.881 2.883 3.881.951 0 1.953-.653 2.504-1.078v.903h1.773V20.626h-1.773v3.68zm-1.78 6.124c-.798 0-1.8-.594-1.8-2.662 0-1.132.295-1.805.295-1.805s.388-.413 1.843-.413c.54 0 1.048.073 1.442.152v4.005c-.21.151-1.047.723-1.78.723zm-.068-11.441h1.773v-7.658h-1.773v7.658zm-.032-9.07h1.838V8.083h-1.838V9.92zm13.676 3.03v6.04h-1.773v-5.413c0-.7-.127-1.024-.818-1.024-.539 0-1.58.59-1.58.59v5.847h-1.773v-5.413c0-.7-.128-1.024-.818-1.024-.54 0-1.58.59-1.58.59v5.847h-1.774v-7.658h1.773v.75c.511-.344 1.585-.995 2.402-.995.642 0 1.342.35 1.632 1.09.427-.3 1.64-1.09 2.54-1.09.834 0 1.77.593 1.77 1.864zm-18.65-.217h-1.032V11.33h1.033l.18-1.825h1.593v1.825h2.19l-.392 1.4h-1.798v3.754c0 .948.444 1.174 1.242 1.174.446 0 .764-.115.764-.115v1.283s-.683.32-1.682.32c-1.257 0-2.097-.632-2.097-2.27v-4.145zM18.49 11.598C18.49 9.45 16.462 9 15.501 9h-4.289v9.988h1.895v-3.933h1.48l2.1 3.933h2.197l-2.308-4.324c1.07-.505 1.914-1.509 1.914-3.067zm-5.383-1.066h2.162c.758 0 1.351.496 1.351 1.364 0 1.208-.785 1.729-.785 1.729h-2.728v-3.093zm4.035 15.855c.651-.515 1.095-1.247 1.095-2.21 0-1.93-2.026-2.31-3.176-2.31h-3.849v9.98h4.26c1.803 0 3.218-1.326 3.218-3.246 0-1.252-.738-1.896-1.548-2.214zm-2.302-2.978c.79 0 1.473.325 1.473 1.202 0 1.206-.69 1.422-.69 1.422h-2.51V23.41h1.727zm1.374 6.884h-3.1v-2.728h2.246c.791 0 1.389.452 1.389 1.329 0 .929-.535 1.399-.535 1.399zm25.11-6.153V26h-.949c-1.197 0-2.115.816-2.5 1.224v4.617h-1.772v-7.659h1.773V25.7c.559-.715 1.472-1.56 2.672-1.56h.776z"/>
                <ellipse cx="3.59" cy="26.963" fill="#000" fill-rule="nonzero" stroke="#000" stroke-linecap="round" stroke-linejoin="round" stroke-width=".5" rx="3.59" ry="3.622"/>
            </g>
        </g>
    </g>
</svg>
