<svg xmlns="http://www.w3.org/2000/svg" xmlns:xlink="http://www.w3.org/1999/xlink" width="50" height="39" viewBox="0 0 50 39">
    <defs>
        <rect id="a" width="50" height="50" rx="25"/>
    </defs>
    <g fill="none" fill-rule="evenodd" transform="translate(0 -8)">
        <mask id="b" fill="#fff">
            <use xlink:href="#a"/>
        </mask>
        <g mask="url(#b)">
            <path stroke="#000" stroke-linecap="round" stroke-linejoin="round" stroke-width=".5" d="M-1.907 20.629c.2 1.235 2.042 1.752 5.875 1.752 1.484 0 6.733-.438 6.733-1.928s-3.585-1.834-6.733-1.796c-3.049.036-6.076.737-5.875 1.972z"/>
            <path fill="#000" d="M18.09 27.032c0 1.009 2.27 1.685 6.243 1.685 3.972 0 5.95-.824 6.052-1.794.103-.97-3.113-1.516-6.19-1.572-2.842-.052-6.105.673-6.105 1.681zM29.61 19.41c.684 1.76 12.843 2.593 12.843-.261 0-1.527-3.607-1.944-5.658-1.974-3.567-.052-7.815.61-7.185 2.235zM42.955 28.618c-1.532.91.997 2.24 1.639 2.315 3.327.39 8.57.495 9.39 0 2.33-1.407-.54-2.557-1.642-2.806-1.886-.426-7.486-.638-9.387.491zM3.84 33.033c.269 1.482 4.875 1.917 6.49 1.9 1.601-.018 6.848-.843 6.848-2.166 0-1.322-3.472-1.98-6.849-1.897-3.303.082-6.759.682-6.49 2.163z"/>
            <path stroke="#000" stroke-linecap="round" stroke-linejoin="round" stroke-width=".5" d="M9.87 34.856c.113-.493.829-2.949 1.072-3.992.652-2.8 1.398-5.478 1.929-7.158M13.23 34.517c.268-.861.588-1.896.854-2.757.119-.386.233-.773.34-1.162 1.867-6.826 1.661-6.144 1.788-6.577M10.148 33.954l3.051.263M12.671 24.603l3.27.456M12.272 25.868c.983.16 2.28.376 3.263.536M11.908 27.282a43.35 43.35 0 0 0 3.257.438M11.51 28.558c.6.106 2.568.374 3.303.503M11.264 29.92c.41.056 2.101.304 3.148.4M13.994 31.87l-3.093-.484"/>
            <path fill="#FFF" stroke="#000" stroke-linecap="round" stroke-linejoin="round" stroke-width=".5" d="M41.82 27.736c1.85-.636 3.748-1.024 5.672.116 1.819 1.078 1.863 4.568 0 5.157-.714.226-1.315.834-2.019.579l-.912.145c-.338-.122-.564-.554-.375-.865.34-.56 1.28-.147 1.704-.644.25-.294.952-1.323.502-1.323-.502 0-1.412-.06-1.905-.205-.674-.2-.984-1.187-1.097-1.563-.373 0-1.192-.295-1.57-.16-.155.19-1.174 1.211-1.288 1.311-.114.1-.93-.67-.82-.851.128-.21 1.737-1.57 2.108-1.697z"/>
            <path fill="#EDEDED" stroke="#000" stroke-linecap="round" stroke-linejoin="round" stroke-width=".5" d="M45.94 25.778c-.154-.399-.26-.355-.706-.624-1.106-.668-1.337-.029-1.379.872-.016.357-.195.815-.107 1.068.055.159.296.128.411.249.148.153.105.432.376.597.078.048.311-.053.7-.303.184.325.42.488.704.488.227 0 .62-.233.641-.488-.19-.299-.31-.523-.36-.672-.067-.21-.161-.605-.28-1.187z"/>
            <path fill="#000" d="M43.53 25.199c-.22-.36.268-.92.598-.906 1.744.074 2.115.077 2.179 1.964.005.165-.01.39-.135.47-.796.513-.135-.759-.548-.763-.162-.002-.32.148-.477.104-.284-.08-.497-.392-.784-.457-.195-.044-.395.22-.585.147-.132-.05-.119-.294-.178-.44l-.07-.12z"/>
            <path stroke="#000" stroke-linecap="round" stroke-linejoin="round" stroke-width=".5" d="M44.158 32.926c-.103.005-.258.054-.376.002-.023-.01-.28-.08-.38-.079-.32.004-.184.042-.506.127-.056.015-.164.05-.325.104-.028.078.338.133.344.132.08 0 .157-.025.237-.03a.081.081 0 0 1 .05.012c.008.005.003.017-.003.022l-.023.045a.373.373 0 0 1-.111.062c-.009.003-.59.138-.605.24 0 .006.037.03.132.025.21-.01.416-.04.626-.043.009 0-.075.06-.094.068-.116.05-.238.086-.35.142-.395.2-.224.298-.173.29.168-.026.622-.297.795-.304.054-.002-.075.068-.118.095-.116.074-.246.13-.36.207-.026.019-.213.103-.029.102.088 0 .176-.007.259-.03.164-.044.307-.14.476-.169.037-.006-.026.067-.048.095-.046.059-.113.102-.154.165-.014.02-.218.18-.21.204.03.084.494-.185.521-.206a.71.71 0 0 0 .13-.135c.333-.21.514-.32.542-.335M40.34 30.178c-.31.612-.179 1.015-.353.944l-.062.015c-.188-.077-.024-.802-.176-.705-.264.17-.329.214-.378.26-.124.114.17.05.096.584-.01.075-.163-.16-.202-.096l-.215-.247c-.068.112.193.305.115.41-.063.084-.624-.481-.284-.91.14-.18.173-.254.337-.41.166-.159.355-.29.532-.434M46.508 31.047l-.023-1.039M.873 16.369l.299.487M4.03 15.712l.1.796M6.923 16.785l.35-.777M23.922 22.229c1.929-.484.243.99.167 1.626M23.951 24.767l.22.03M33.255 16.39c-.096-.32-.576-.795-.289-.96.314-.18.545.666.9.61.316-.051.179-.809.498-.833.291-.023.17.784.461.758.439-.039.55-.874.99-.888.286-.009-.112.855.173.852.484-.006.69-.858 1.173-.868.277-.005-.268.814.007.844.446.048.698-.764 1.144-.72.272.027-.26.674-.035.83.24.166.544-.363.823-.284.17.048.035.355.052.532M10.546 32.653l3.05.47"/>
            <g stroke-linecap="round" stroke-linejoin="round" stroke-width="3.45">
                <path stroke="#FF0" d="M8.908 10.04c1.028.298 3.067.771 3.658 1.658.4.601-.019 1.454.072 2.172.262 2.076 2.485 2.387 4.088 2.384M24.592 44.985c.383-.844.864-2.422 1.875-2.89.567-.263 3.842-.316 4.149-1.619.718-3.055-.875-5.625 1.297-8.074M47.377 14.21c-3.219 6.532-6.305.441-11.647 3.346-2.12 1.153-1.646 4.956-2.089 6.464-.13.447-.555.779-.954 1.014-.255.15-.589.047-.883.07M20.37 31.364c-.51.08-1.095.523-1.528.24-.712-.467-.852-1.493-1.394-2.153-1.46-1.775-6.077-4.363-7.803-1.407-.801 1.371-.838 3.206-1.917 4.368-.513.553-1.506.226-2.249.119-.734-.106-1.398-.498-2.097-.747M-3.932 41.147c2.91.206 7.654.435 10.102 1.29 2.259.788-2.099 8.42 3.62 7.066.16-.038.213-.251.32-.376" style="mix-blend-mode:multiply"/>
                <path stroke="#5B00FF" d="M53.855 43.753c-1.529-.198-3.05-.727-4.586-.593-4.14.361-1.68 7.001-3.283 7.68-1.986.84-3.548-2.308-4.448-1.32" style="mix-blend-mode:multiply"/>
            </g>
        </g>
    </g>
</svg>
