<svg xmlns="http://www.w3.org/2000/svg" width="285" height="251" viewBox="0 0 285 251">
    <defs>
        <path id="a" d="M0 0h520v500H0z"/>
    </defs>
    <g fill="none" fill-rule="evenodd">
        <path stroke="#000" stroke-linecap="round" stroke-linejoin="round" stroke-width="1.44" d="M18.272 59.088c.93 5.625 9.456 7.978 27.2 7.978 6.872 0 31.176-1.993 31.176-8.78 0-6.788-16.598-8.348-31.176-8.179-14.114.165-28.13 3.356-27.2 8.981z"/>
        <path fill="#000" d="M110.856 88.25c0 4.592 10.513 7.672 28.904 7.672s27.547-3.752 28.023-8.17c.476-4.419-14.415-6.902-28.661-7.16-13.159-.237-28.266 3.066-28.266 7.658zM164.195 53.536c3.164 8.014 59.46 11.81 59.46-1.188 0-6.953-16.7-8.852-26.194-8.988-16.516-.236-36.187 2.776-33.266 10.176zM225.978 95.473c-7.094 4.144 4.618 10.198 7.588 10.54 15.404 1.776 39.684 2.253 43.477 0 10.786-6.406-2.497-11.644-7.605-12.779-8.73-1.938-34.657-2.904-43.46 2.24zM44.877 115.579c1.246 6.745 22.572 8.726 30.048 8.647 7.416-.078 31.707-3.837 31.707-9.859 0-6.021-16.072-9.02-31.707-8.64-15.295.372-31.295 3.106-30.048 9.852z"/>
        <path stroke="#000" stroke-linecap="round" stroke-linejoin="round" stroke-width=".72" d="M72.798 123.877c.523-2.241 3.838-13.427 4.963-18.176 3.021-12.752 6.473-24.947 8.93-32.598M88.359 122.335c1.237-3.921 2.72-8.634 3.95-12.557.55-1.756 1.08-3.518 1.574-5.29 8.643-31.088 7.692-27.981 8.28-29.953M74.088 119.77l14.126 1.26M85.767 77.186l15.142 2.184M83.919 82.948c4.55.728 10.557 1.712 15.107 2.44M82.235 89.389c3.996.753 9.023 1.451 15.08 2.094M80.395 95.199c2.771.493 11.887 1.742 15.287 2.34M79.252 101.403c1.899.267 9.729 1.454 14.576 1.91M91.894 110.373l-14.322-2.294"/>
        <path fill="#FFF" stroke="#000" stroke-linecap="round" stroke-linejoin="round" stroke-width=".72" d="M220.723 91.453c8.57-2.896 17.352-4.663 26.262.531 8.42 4.908 8.626 20.8 0 23.483-3.304 1.028-6.087 3.797-9.347 2.637l-4.222.66c-1.566-.557-2.61-2.524-1.738-3.937 1.574-2.55 5.926-.67 7.888-2.936 1.158-1.337 4.409-6.024 2.324-6.024-2.324 0-6.534-.272-8.816-.934-3.12-.906-4.556-5.404-5.083-7.118-1.726 0-5.519-1.34-7.268-.729-.716.87-5.433 5.518-5.963 5.974-.529.455-4.309-3.05-3.796-3.878.593-.957 8.045-7.15 9.759-7.729z"/>
        <path fill="#EDEDED" stroke="#000" stroke-linecap="round" stroke-linejoin="round" stroke-width=".72" d="M239.796 82.536c-.71-1.815-1.202-1.613-3.264-2.839-5.122-3.044-6.193-.132-6.385 3.969-.077 1.629-.906 3.715-.498 4.864.256.723 1.37.584 1.905 1.134.683.7.487 1.967 1.739 2.72.362.218 1.441-.242 3.239-1.379.857 1.48 1.945 2.22 3.264 2.22 1.05 0 2.873-1.06 2.967-2.22-.884-1.363-1.438-2.384-1.663-3.063-.316-.952-.75-2.754-1.304-5.406z"/>
        <path fill="#000" d="M228.64 79.9c-1.015-1.636 1.242-4.191 2.77-4.127 8.075.337 9.795.353 10.088 8.944.026.753-.046 1.78-.623 2.146-3.686 2.333-.624-3.46-2.537-3.478-.75-.008-1.482.675-2.21.475-1.316-.362-2.3-1.786-3.628-2.081-.907-.202-1.832 1.002-2.71.67-.614-.233-.55-1.34-.824-2.01l-.327-.54z"/>
        <path stroke="#000" stroke-linecap="round" stroke-linejoin="round" stroke-width=".72" d="M231.517 115.102c-.473.02-1.187.24-1.733-.001-.109-.048-1.296-.374-1.76-.372-1.472.005-.844.183-2.325.562-.257.066-.757.222-1.5.467-.125.354 1.566.615 1.596.615.37-.001.72-.112 1.088-.132a.38.38 0 0 1 .237.058c.03.022.01.078-.016.1l-.108.206c-.15.117-.32.215-.508.278-.041.014-2.715.613-2.782 1.076-.004.03.17.139.608.12.965-.041 1.916-.167 2.885-.178.041 0-.344.275-.43.31-.532.221-1.097.385-1.61.638-1.818.898-1.025 1.355-.79 1.32.776-.116 2.863-1.34 3.658-1.366.248-.008-.342.31-.54.434-.533.333-1.133.58-1.65.933-.126.085-.982.463-.134.464.407 0 .812-.028 1.191-.127.755-.197 1.412-.628 2.19-.757.171-.028-.116.303-.215.43-.21.269-.518.464-.707.748-.061.093-1 .814-.96.926.137.385 2.271-.829 2.396-.925.228-.177.428-.386.598-.613 1.527-.945 2.356-1.448 2.487-1.51M213.87 102.577c-1.435 2.785-.825 4.622-1.631 4.295l-.288.072c-.87-.352-.113-3.656-.815-3.212-1.224.775-1.522.976-1.752 1.185-.57.519.792.23.446 2.66-.048.34-.755-.73-.937-.438l-.992-1.127c-.319.51.893 1.392.529 1.871-.289.38-2.887-2.195-1.315-4.15.654-.813.804-1.151 1.564-1.866.766-.72 1.64-1.317 2.46-1.975M242.405 106.535l-.081-4.732"/>
        <path stroke="#000" stroke-linecap="round" stroke-linejoin="round" stroke-width="1.44" d="M31.141 39.687l1.44 2.304M45.757 36.699l.4 3.624M59.155 41.583l1.678-3.54M137.858 66.375c8.931-2.205 1.126 4.513.772 7.404M137.992 77.932l1.054.106M181.068 39.783c-.445-1.456-2.664-3.62-1.336-4.368 1.454-.82 2.52 3.032 4.17 2.772 1.461-.23.824-3.68 2.3-3.792 1.351-.102.785 3.574 2.136 3.456 2.031-.178 2.547-3.981 4.585-4.045 1.321-.04-.52 3.892.802 3.877 2.239-.025 3.191-3.904 5.43-3.948 1.282-.026-1.244 3.705.031 3.84 2.065.219 3.23-3.48 5.297-3.277 1.257.124-1.207 3.07-.164 3.78 1.11.756 2.52-1.655 3.814-1.295.783.218.159 1.616.238 2.423"/>
        <path stroke="#000" stroke-linecap="round" stroke-linejoin="round" stroke-width=".72" d="M75.927 113.849l14.12 2.243"/>
        <g stroke="#FF0" stroke-linecap="round" stroke-linejoin="round" stroke-width="16.56">
            <path d="M67.91 9.18c4.768 1.37 14.235 3.543 16.978 7.61 1.86 2.758-.09 6.67.332 9.968 1.217 9.522 11.533 10.95 18.973 10.935M140.702 169.52c1.778-3.871 4.01-11.113 8.703-13.263 2.631-1.206 17.833-1.45 19.255-7.425 3.333-14.016-4.058-25.811 6.021-37.046M246.454 28.316c-14.94 29.972-29.263 2.025-54.056 15.35-9.844 5.292-7.64 22.74-9.695 29.662-.609 2.05-2.577 3.573-4.428 4.651-1.184.69-2.734.214-4.1.321M121.104 107.021c-2.362.368-5.08 2.401-7.087 1.103-3.306-2.14-3.954-6.851-6.472-9.878-6.776-8.143-28.206-20.018-36.216-6.457-3.718 6.294-3.89 14.711-8.895 20.042-2.383 2.538-6.99 1.038-10.439.545-3.405-.486-6.489-2.284-9.734-3.425M8.315 151.909c13.507.945 35.526 1.999 46.886 5.917 10.485 3.617-9.74 38.637 16.804 32.423.739-.173.987-1.151 1.481-1.727M276.519 163.868c-7.094-.908-14.157-3.338-21.282-2.723-19.217 1.66-7.8 32.125-15.238 35.235-9.22 3.854-16.47-10.587-20.646-6.053M118.789 201.431c-.532 27.617-3.891 12.12 25.456 21.088 1.611.493 1.304 3.165 1.42 4.844.35 5.069-.023 10.162-.034 15.243" style="mix-blend-mode:multiply"/>
        </g>
    </g>
</svg>
