<svg xmlns="http://www.w3.org/2000/svg" xmlns:xlink="http://www.w3.org/1999/xlink" width="229" height="248" viewBox="0 0 229 248">
    <defs>
        <ellipse id="a" cx="49.45" cy="87.948" rx="49.45" ry="87.948"/>
        <path id="c" d="M0 0h520v500H0z"/>
    </defs>
    <g fill="none" fill-rule="evenodd">
        <g transform="translate(1 1.496)">
            <g transform="translate(63.318)">
                <mask id="b" fill="#fff">
                    <use xlink:href="#a"/>
                </mask>
                <use fill="#FBB3C1" stroke="#000" stroke-linecap="round" stroke-linejoin="round" stroke-width="1.44" xlink:href="#a"/>
                <ellipse cx="77.916" cy="87.948" fill="#000" stroke="#000" stroke-linecap="round" stroke-linejoin="round" stroke-width="1.44" mask="url(#b)" rx="49.45" ry="87.948"/>
            </g>
            <path fill="#FFF" stroke="#000" stroke-linecap="round" stroke-linejoin="round" stroke-width="1.44" d="M162.403 88.676c-13.14 0-30.1 3.358-38.504 6.191-17.472 5.89-32.596 24.036-32.596 50.537 0 9.253 4.65 20.5 12.342 27.215 19.88 17.354 46.972 13.659 69.887 16.388 10.893 1.297 24.816 1.596 29.195 9.468 4.38 7.872 1.278 29.498 1.278 34.05 0 4.553 7.352.145 9.306 0 4.714-.347 11.117 5.88 13.685 2.003V199.75c-1.824-35.69-62.12-30.288-75.238-32.26-17.82-2.678-38.828-5.39-37.347-26.737.36-5.205 5.109-23.853 32.04-28.791 4.867-.892 7.191-1.253 13.76-1.253.852-.85 1.582-8.194 2.192-22.033z"/>
            <path fill="#FFF" stroke="#000" stroke-linecap="round" stroke-linejoin="round" stroke-width="1.44" d="M152.618 35.956c-12.26.355-53.124-.362-59.296 0C67.244 37.485 46.991 34.788 27 54.08c-16.604 16.024-14.38 65.875-9.694 109.798 1.442 13.518 2.95 41.334-4.167 44.794-7.116 3.46-3.868 1.467-6.204 4.734-2.337 3.268 3.579 18.712 5.268 20.03 4.22-.729 8.235-.396 14.797-4.792 19.93-13.351 10.225-87.883 10.225-122.851 0-9.469-2.372-28.042 9.307-37.874 14.204-11.96 61.31-6.903 113.68-6.903a87.45 87.45 0 0 0-7.593-25.06z"/>
            <ellipse cx="12.206" cy="221.803" fill="#000" stroke="#000" stroke-linecap="round" stroke-linejoin="round" stroke-width=".72" rx="12.062" ry="12.037"/>
            <ellipse cx="215.665" cy="233.437" fill="#000" stroke="#000" stroke-linecap="round" stroke-linejoin="round" stroke-width=".72" rx="11.861" ry="11.836"/>
            <g transform="translate(.917 215.985)">
                <path fill="#FFF" d="M.052 6.072A13.787 13.787 0 0 1 11.446.07c4.733 0 8.909 2.378 11.393 6.003a13.787 13.787 0 0 1-11.393 6.004c-4.733 0-8.91-2.379-11.394-6.004z"/>
                <ellipse cx="11.211" cy="6.092" fill="#000" rx="5.496" ry="5.485"/>
            </g>
            <g transform="translate(204.008 228.367)">
                <path fill="#FFF" d="M.052 6.072A13.787 13.787 0 0 1 11.446.07c4.733 0 8.909 2.378 11.393 6.003a13.787 13.787 0 0 1-11.393 6.004c-4.733 0-8.91-2.379-11.394-6.004z"/>
                <ellipse cx="11.211" cy="6.092" fill="#000" rx="5.496" ry="5.485"/>
            </g>
        </g>
    </g>
</svg>
