<svg xmlns="http://www.w3.org/2000/svg" xmlns:xlink="http://www.w3.org/1999/xlink" width="50" height="40" viewBox="0 0 50 40">
    <defs>
        <rect id="a" width="50" height="50" rx="25"/>
    </defs>
    <g fill="none" fill-rule="evenodd" transform="translate(0 -7)">
        <mask id="b" fill="#fff">
            <use xlink:href="#a"/>
        </mask>
        <g stroke-linecap="round" stroke-linejoin="round" mask="url(#b)">
            <path fill="#FFF" stroke="#000" stroke-width=".768" d="M15.688 16.367c-1.31 1.516-3.302 9.72-2.479 11.752.048.117-.49-3.237-1.554-1.86-1.117 1.447-1.426 4.355-.26 5.869.294.382.835.382 1.229.179.363-.188.901-1.16.964-.755.3 1.938 1.73 14.401 10.498 14.401 7.512 0 10.8-12.148 11.396-12.81.2-.223.054.844 1.288.347 2.334-.941 2.155-5.312 1.3-5.824-1.024-.615-2.01 1.057-1.854.453 1.573-6.086 1.12-9.831-.377-12.018-.4-.583-1.21-.745-1.815-1.117"/>
            <path fill="#FF00EC" stroke="#000" stroke-width=".512" d="M13.005 24.733c-.948-3.73-.683-6.486.756-9.805 1.438-3.319 5.897-4.639 9.547-5.23 1.669-.27 3.355-1.05 4.572-1.568.956-.407-.068 1.117-.468 1.828 1.32.489 3.56-1.037 5.368-1.828 0 1.295-1.017 2.232 0 2.232 1.16 0 2.458-.664 5.46-1.313.906-.196-.721 1.711-.442 2.56.192.582 1.145.403 2.862-.54.879 1.514-.452 4.573-1.548 5.688-2.252 2.292-5.896 3.105-8.98 3.105-5.568 0-8.075-2.824-10.44-3.368-1.635-.375-3.993.609-4.814 1.444"/>
            <path stroke="#000" stroke-width=".512" d="M24.487 34.15c4.074.373 1.575-3.801 1.575-6.389 0-5.522 3.19-5.262 7.176-5.17M21.874 23.98c-1.573-1.273-3.742-1.871-5.663-.734"/>
            <path stroke="#000" stroke-width=".512" d="M30.906 25.803c.788.03 1.14-.012 2.928 1.04-1.384 1.795-4.296 1.044-5.855.29 0 0 1.418-1.39 2.927-1.33z"/>
            <path stroke="#000" stroke-width=".512" d="M30.289 26.004c-.582.963.187 1.86.934 1.925.355.03 1.644-.285 1.231-1.74M21.602 26.044c-1.196-.884-2.976-1.384-5.52-.098.056.695 3.442 2.896 5.712.277l-.192-.18z"/>
            <path stroke="#000" stroke-width=".512" d="M18.3 25.4c-.865.952.136 1.903.55 1.903 1.345 0 1.313-1.27 1.032-1.902"/>
            <path stroke="#FF00EC" stroke-width=".512" d="M53.348 17.852c-1.691.45-3.325 1.17-4.9 1.99-1.198.625-4.436 2.694-5.207 3.153l1.437-2.493M43.332 22.96c.724-.079 1.484-.04 2.208-.118"/>
            <path stroke="#5B00FF" stroke-width=".512" d="M57.85 33.224c-8.866-2.221-12.216-1.388-12.216-1.577 0 0 .97 1.22 1.48 1.705M45.567 31.56l1.724-1.17"/>
            <path stroke="#000" stroke-width=".512" d="M-6.68 39.765c3.951-2.19 8.297-3.68 15.223-3.68.408 0-1.808-.709-2.278-.832M7.029 37.768l1.474-1.62"/>
            <path stroke="#02EBCD" stroke-width=".512" d="M-20 25.793c2.077-1.527 6.244-1.745 8.646-1.48 4.886.542 8.397 1.696 12.855 3.608"/>
            <path stroke="#02EBCD" stroke-width=".512" d="M-.73 28.642c1.275-.284 2.49-.234 2.549-.603.054-.341-.892-1.09-1.68-1.976"/>
            <path stroke="#000" stroke-width=".512" d="M-7.326 12.35c3.809.814 9.311 2.866 13.423 6.786M4.183 19.059c2.048.01 2.432.933 1.56-1.719M23.194 13.894c1.544-1.737 4.825-.577 6.17-1.993M24.877 15.93c1.09-1.61 5.144-1.111 7.329-2.973M29.93 15.95c.984-1.091 4.346-1.403 5.632-4.337M44.532 14.564c1.32-1.598 3.622-3.288 7.244-3.877"/>
            <path stroke="#5B00FF" stroke-width=".512" d="M-3.317 20.42C.5 19.426.652 22.492 2.75 24.284c.886.756 1.637 1.334 2.661 1.032.917-.27 1.06-1.178.389-1.561-1.293-.738-1.881 1.56-1.368 2.696.512 1.136 1.885 2.25 3.939 2.89"/>
            <path stroke="#02EBCD" stroke-width=".512" d="M49.43 40.962c-1.742.101-4.495.27-6.328-1.06-2.295-1.665-.283-3.98.494-3.038.893 1.085-1.44 2.312-2.673 1.895-1.676-.566-2.348-3.73-2.469-3.89"/>
            <path stroke="#02EBCD" stroke-width=".512" d="M37.75 37.667s.576-2.621.576-2.83c.175-.205.77.716 2.301 1.023"/>
            <path fill="#D8D8D8" stroke="#000" stroke-width=".512" d="M22.234 37.515c2.269.17 4.4 0 6.72 0 .271 0 .212.9 0 .932-.764.115-6.145.389-8.037.085-.684-.11-1.457-.134-2.001-.559-.195-.152-.24-.442-.132-.869 1.545.217 2.696.354 3.45.41z"/>
            <path stroke="#000" stroke-width=".512" d="M28.781 40.583c0 .436 1.35.283 1.23-.106-.37-1.333-.634-2.189-.791-2.567-.293 1.3-.439 2.19-.439 2.673zM31.176 25.87c-.749 1.354.624 1.456.412.086M20.251 37.304l.36 1.121M22.167 37.713l.38.853M24.36 37.837l.36.785M26.495 37.572l.359.853M19.061 25.407c-.975 1.261.602 1.396.18.143"/>
        </g>
    </g>
</svg>
