<svg xmlns="http://www.w3.org/2000/svg" xmlns:xlink="http://www.w3.org/1999/xlink" width="300" height="136" viewBox="0 0 300 136">
    <defs>
        <path id="a" d="M0 0h520v500H0z"/>
    </defs>
    <g fill="none" fill-rule="evenodd" transform="translate(-108 -169)">
        <mask id="b" fill="#fff">
            <use xlink:href="#a"/>
        </mask>
        <g stroke-linecap="round" stroke-linejoin="round" mask="url(#b)">
            <path fill="#FFF" stroke="#000" stroke-width="2.688" d="M232.661 199.286c-4.537 5.304-11.44 34.019-8.587 41.129.164.41-1.698-11.328-5.384-6.507-3.873 5.063-4.941 15.243-.904 20.54 1.021 1.339 2.894 1.338 4.26.626 1.258-.657 3.122-4.056 3.34-2.642 1.039 6.783 5.998 50.404 36.379 50.404 26.027 0 37.419-42.519 39.487-44.836.696-.78.188 2.956 4.461 1.215 8.09-3.295 7.469-18.592 4.508-20.385-3.55-2.15-6.967 3.7-6.426 1.585 5.45-21.298 3.88-34.409-1.307-42.06-1.385-2.043-4.193-2.608-6.29-3.912"/>
            <path fill="#FF00EC" stroke="#000" stroke-width="1.792" d="M223.367 228.565c-3.286-13.056-2.367-22.7 2.618-34.317 4.985-11.617 20.434-16.236 33.084-18.305 5.78-.945 11.623-3.675 15.842-5.49 3.311-1.423-.235 3.91-1.622 6.4 4.573 1.71 12.333-3.63 18.598-6.4 0 4.534-3.521 7.815 0 7.815 4.021 0 8.52-2.325 18.919-4.597 3.141-.687-2.497 5.99-1.53 8.96.664 2.039 3.97 1.41 9.917-1.887 3.046 5.298-1.564 16.001-5.363 19.906-7.805 8.022-20.43 10.868-31.117 10.868-19.293 0-27.98-9.885-36.173-11.788-5.667-1.315-13.839 2.13-16.684 5.054"/>
            <path stroke="#000" stroke-width="1.792" d="M263.153 261.523c14.118 1.308 5.457-13.302 5.457-22.359 0-19.328 11.055-18.416 24.865-18.093M254.098 225.93c-5.45-4.455-12.966-6.55-19.624-2.568"/>
            <path stroke="#000" stroke-width="1.792" d="M285.397 232.309c2.727.11 3.947-.04 10.144 3.644-4.797 6.28-14.888 3.651-20.288 1.014 0 0 4.915-4.868 10.144-4.658z"/>
            <path stroke="#000" stroke-width="1.792" d="M283.257 233.014c-2.018 3.372.647 6.507 3.238 6.737 1.23.109 5.696-.998 4.265-6.087M253.156 233.154c-4.145-3.093-10.312-4.843-19.125-.343.191 2.433 11.925 10.138 19.79.97l-.665-.627z"/>
            <path stroke="#000" stroke-width="1.792" d="M241.716 230.902c-2.998 3.33.47 6.66 1.906 6.66 4.66 0 4.549-4.448 3.574-6.66"/>
            <path stroke="#FF00EC" stroke-width="1.792" d="M363.16 204.481c-5.86 1.573-11.52 4.095-16.982 6.969-4.15 2.184-15.37 9.427-18.042 11.033l4.982-8.725M328.454 222.359c2.508-.275 5.142-.138 7.65-.413"/>
            <path stroke="#5B00FF" stroke-width="1.792" d="M378.761 258.283c-30.722-7.774-42.333-4.857-42.333-5.518 0 0 3.361 4.269 5.132 5.966M336.197 252.457l5.974-4.09"/>
            <path stroke="#000" stroke-width="1.792" d="M155.156 281.178c13.69-7.668 28.75-12.883 52.75-12.883 1.413 0-6.266-2.478-7.896-2.911M202.657 274.19l5.108-5.671"/>
            <path stroke="#02EBCD" stroke-width="1.792" d="M109 232.274c7.197-5.342 21.637-6.107 29.96-5.175 16.93 1.894 29.095 5.934 44.544 12.626"/>
            <path stroke="#02EBCD" stroke-width="1.792" d="M175.77 242.248c4.42-.995 8.63-.821 8.834-2.11.19-1.196-3.09-3.815-5.819-6.918"/>
            <path stroke="#000" stroke-width="1.792" d="M152.916 185.226c13.198 2.847 32.265 10.03 46.513 23.75M192.798 208.706c7.097.038 8.426 3.267 5.404-6.016M258.672 190.63c5.35-6.081 16.719-2.021 21.377-6.977M264.504 197.758c3.777-5.64 17.824-3.892 25.396-10.409M282.015 197.825c3.41-3.82 15.057-4.91 19.513-15.18M353.815 235.082c1.531-2.583 6.992-5.522 10.029-4.314 3.568 1.419 3.265 8.036 8.631 4.314 5.367-3.723 11.442-8.107 16.415-5.299 7.862 4.44 8.335 8.596 17.665 2.764M332.612 192.973c4.57-5.59 12.55-11.507 25.102-13.569"/>
            <path stroke="#5B00FF" stroke-width="1.792" d="M166.808 213.469c13.226-3.477 13.753 7.254 21.026 13.523 3.073 2.649 5.674 4.67 9.222 3.613 3.178-.947 3.674-4.121 1.346-5.463-4.48-2.583-6.517 5.463-4.74 9.438 1.776 3.976 6.534 7.874 13.65 10.113"/>
            <path stroke="#02EBCD" stroke-width="1.792" d="M349.582 285.366c-6.035.356-15.574.945-21.927-3.71-7.953-5.826-.98-13.93 1.712-10.63 3.096 3.795-4.987 8.089-9.26 6.632-5.81-1.982-8.139-13.055-8.557-13.618"/>
            <path stroke="#02EBCD" stroke-width="1.792" d="M309.11 273.834s1.995-9.174 1.995-9.906c.608-.716 2.67 2.51 7.975 3.582"/>
            <path fill="#D8D8D8" stroke="#000" stroke-width="1.792" d="M255.346 273.301c7.861.6 15.245 0 23.285 0 .94 0 .734 3.15 0 3.262-2.648.404-21.293 1.362-27.85.3-2.37-.385-5.049-.469-6.934-1.956-.676-.534-.828-1.548-.457-3.042 5.356.759 9.342 1.237 11.956 1.436z"/>
            <path stroke="#000" stroke-width="1.792" d="M278.032 284.041c0 1.525 4.679.99 4.26-.372-1.281-4.666-2.195-7.66-2.74-8.984-1.014 4.547-1.52 7.666-1.52 9.356z"/>
            <path stroke="#FF00EC" stroke-width="1.792" d="M148.904 271.423c1.752-8.592 3.665-17.23 4.097-17.183.374.04 5.415 13.124 5.415 14.863 0 .639-9.87-4.56-12.873-7.317 2.052-.753 7.346-2.07 11.084-2.822 1.224-.247 4.398-1.228 3.744-.164-1.143 1.859-4.965 6.067-11.467 12.623z"/>
            <path stroke="#000" stroke-width="1.792" d="M371.07 208.96c.48 3.11 3.362 3.36 4.057.507.218-.89-.46-2.6-1.493-2.942-1.217-.403-2.824.752-2.564 2.435z"/>
            <path fill="#FFE880" stroke="#000" stroke-width="1.792" d="M375.59 182.896c-.993 3.475 3.827 5.356 5.773 2.583 1.765-2.516-.303-5.188-2.582-5.188-2.128 0-3.191.868-3.191 2.605z"/>
            <path stroke="#000" stroke-width="1.792" d="M383.225 178.687c2.03-2.419 7.583-4.837 12.726-4.837M386.323 183.971c3.456-1.926 6.032-2.913 12.063-1.926M144.897 267.966c-7.125 1.823-9.918 5.03-13.26 10.06M142.058 264.756c-5.238 0-9.291 1.597-12.266 3.194M141.708 260.755c-3.14-.527-5.885 0-8.965 1.494M286.33 232.546c-2.593 4.738 2.161 5.097 1.429.301M248.476 272.563l1.255 3.925M255.115 273.995l1.329 2.986M262.714 274.43l1.255 2.746M270.11 273.502l1.255 2.986M244.351 230.925c-3.378 4.414 2.087 4.885.622.502"/>
        </g>
    </g>
</svg>
